<svg width="38" height="38" viewBox="0 0 38 38" fill="none" xmlns="http://www.w3.org/2000/svg">
<circle cx="19" cy="19" r="18.5" stroke="#212121"/>
<path d="M28.44 18.05L19.25 27.24C18.1242 28.3658 16.5972 28.9983 15.005 28.9983C13.4129 28.9983 11.8859 28.3658 10.76 27.24C9.6342 26.1142 9.00171 24.5872 9.00171 22.995C9.00171 21.4028 9.6342 19.8758 10.76 18.75L19.33 10.18C20.0806 9.42811 21.0991 9.00518 22.1615 9.00424C23.2239 9.00331 24.2432 9.42444 24.995 10.175C25.7469 10.9256 26.1699 11.9441 26.1708 13.0065C26.1717 14.0689 25.7506 15.0881 25 15.84L16.41 24.41C16.0348 24.7853 15.5258 24.9961 14.995 24.9961C14.4643 24.9961 13.9553 24.7853 13.58 24.41C13.2048 24.0347 12.9939 23.5257 12.9939 22.995C12.9939 22.4643 13.2048 21.9553 13.58 21.58L22.07 13.1" stroke="#212121" stroke-linecap="round" stroke-linejoin="round"/>
</svg>
