<svg width="38" height="38" viewBox="0 0 38 38" fill="none" xmlns="http://www.w3.org/2000/svg">
<circle cx="19" cy="19" r="18.5" stroke="#212121"/>
<path d="M20 20C20.5523 20 21 19.5523 21 19C21 18.4477 20.5523 18 20 18C19.4477 18 19 18.4477 19 19C19 19.5523 19.4477 20 20 20Z" stroke="#212121" stroke-linecap="round" stroke-linejoin="round"/>
<path d="M27 20C27.5523 20 28 19.5523 28 19C28 18.4477 27.5523 18 27 18C26.4477 18 26 18.4477 26 19C26 19.5523 26.4477 20 27 20Z" stroke="#212121" stroke-linecap="round" stroke-linejoin="round"/>
<path d="M13 20C13.5523 20 14 19.5523 14 19C14 18.4477 13.5523 18 13 18C12.4477 18 12 18.4477 12 19C12 19.5523 12.4477 20 13 20Z" stroke="#212121" stroke-linecap="round" stroke-linejoin="round"/>
</svg>
